<svg width="53" height="72" viewBox="0 0 53 72" fill="none" xmlns="http://www.w3.org/2000/svg">
<path d="M47.5105 24.2925L31.56 8.17727C29.411 6.01184 28.2036 3.07012 28.2036 0H20.1619C20.1619 5.22388 22.2185 10.2318 25.8754 13.9265L33.686 21.8177C34.2406 22.3781 33.6282 23.3061 32.9003 23.0026L5.84638 11.6852C4.61587 14.0782 3.56444 16.5763 2.70366 19.1678L29.8211 30.5145C30.5491 30.818 30.3353 31.9153 29.5438 31.9153H0.150203C0.0519935 33.2577 0 34.6119 0 35.9777C0 37.3435 0.0519935 38.6976 0.150203 40.04H29.5438C30.3295 40.04 30.5491 41.1373 29.8211 41.4408L2.70366 52.7875C3.56444 55.379 4.61587 57.8771 5.84638 60.2702L32.9003 48.9527C33.6282 48.6492 34.2406 49.5773 33.686 50.1376L25.8754 58.0289C22.2185 61.7235 20.1677 66.7314 20.1677 71.9553H28.2094C28.2094 68.8852 29.4168 65.9435 31.5658 63.7722L47.5163 47.657C50.7052 44.4351 52.2997 40.2035 52.2997 35.9777C52.2997 31.746 50.7052 27.5144 47.5163 24.2983L47.5105 24.2925Z" fill="#B192FF"/>
</svg>
