<svg width="125" height="32" viewBox="0 0 125 32" fill="none" xmlns="http://www.w3.org/2000/svg">
<path d="M35.4231 17.0876C35.5959 18.7748 35.8951 19.6392 36.7126 20.7216C38.0022 22.4945 39.8926 23.4471 42.0435 23.4471C44.4936 23.4471 46.8147 22.1051 47.9753 20.0286L50.8561 21.111C49.2236 24.4413 45.827 26.4763 42.0435 26.4763C36.1556 26.4763 31.9414 22.1493 31.9414 16.0935C31.9414 10.0377 36.1117 5.58081 41.9146 5.58081C47.7174 5.58081 51.9728 9.9494 51.9728 15.7898C51.9728 16.0493 51.9728 16.6126 51.929 17.0876H35.4231ZM48.4911 14.6658C48.3622 13.1084 48.0604 12.244 47.3744 11.2473C46.1287 9.56005 44.1067 8.52176 41.9146 8.52176C39.7224 8.52176 37.7443 9.56004 36.5837 11.2914C35.9828 12.244 35.7249 13.0643 35.467 14.6658H48.4911Z" fill="#F2F0FF"/>
<path d="M57.6467 25.9987H53.6492L60.1381 17.2018C60.6255 16.5425 60.6229 15.6392 60.1381 14.9825L53.5228 6.05322H57.6493L63.0833 13.6068C64.1485 15.0863 64.1433 17.0902 63.0679 18.5646L57.6493 25.9987H57.6467Z" fill="#F2F0FF"/>
<path d="M71.2022 25.9987L65.7836 18.5646C64.7082 17.0902 64.703 15.0863 65.7682 13.6068L71.2022 6.05322H75.3287L68.7134 14.9825C68.226 15.6418 68.226 16.5425 68.7134 17.2018L75.2023 25.9987H71.2048H71.2022Z" fill="#F2F0FF"/>
<path d="M100.136 25.9987V0H103.404V25.9987H100.136Z" fill="#F2F0FF"/>
<path d="M21.21 10.8034L14.0893 3.6366C13.1299 2.67359 12.5909 1.36535 12.5909 0H9.00085C9.00085 2.32317 9.91899 4.55029 11.5515 6.19338L15.0384 9.70279C15.286 9.95198 15.0126 10.3647 14.6876 10.2297L2.60999 5.19663C2.06065 6.26087 1.59127 7.37184 1.20699 8.52433L13.313 13.5704C13.638 13.7054 13.5425 14.1934 13.1892 14.1934H0.0670551C0.0232114 14.7904 0 15.3926 0 16C0 16.6074 0.0232114 17.2096 0.0670551 17.8066H13.1892C13.54 17.8066 13.638 18.2946 13.313 18.4296L1.20699 23.4757C1.59127 24.6282 2.06065 25.7391 2.60999 26.8034L14.6876 21.7703C15.0126 21.6353 15.286 22.048 15.0384 22.2972L11.5515 25.8066C9.91899 27.4497 9.00343 29.6768 9.00343 32H12.5935C12.5935 30.6347 13.1325 29.3264 14.0919 28.3608L21.2126 21.194C22.6362 19.7612 23.3481 17.8793 23.3481 16C23.3481 14.1181 22.6362 12.2362 21.2126 10.806L21.21 10.8034Z" fill="#B192FF"/>
<path d="M91.5844 6.05579V18.8189C91.5844 20.3764 91.3265 21.2407 90.6817 22.0194C89.908 22.9721 88.0588 23.5327 86.6842 23.5327C85.3096 23.5327 83.4604 22.9695 82.6867 22.0194C82.0419 21.2407 81.784 20.3764 81.784 18.8189V6.05579H78.4751V18.8189C78.4751 21.5444 78.9909 23.0577 80.4532 24.3997C81.9155 25.7417 84.4946 26.4763 86.6868 26.4763C88.879 26.4763 91.458 25.7417 92.9203 24.3997C94.3826 23.0577 94.8984 21.5444 94.8984 18.8189V6.05579H91.5895H91.5844Z" fill="#F2F0FF"/>
<path d="M121.744 6.05579V18.8189C121.744 20.3764 121.486 21.2407 120.841 22.0194C120.067 22.9721 118.218 23.5327 116.843 23.5327C115.469 23.5327 113.62 22.9695 112.846 22.0194C112.201 21.2407 111.943 20.3764 111.943 18.8189V6.05579H108.634V18.8189C108.634 21.5444 109.15 23.0577 110.613 24.3997C112.075 25.7417 114.654 26.4763 116.846 26.4763C119.038 26.4763 121.617 25.7417 123.08 24.3997C124.542 23.0577 125.058 21.5444 125.058 18.8189V6.05579H121.749H121.744Z" fill="#F2F0FF"/>
</svg>
