<svg width="280" height="72" viewBox="0 0 280 72" fill="none" xmlns="http://www.w3.org/2000/svg">
<path d="M79.3478 38.4232C79.7349 42.2171 80.405 44.1607 82.2363 46.5946C85.1248 50.5811 89.3594 52.7232 94.1775 52.7232C99.6657 52.7232 104.865 49.7056 107.465 45.0362L113.918 47.4701C110.261 54.9587 102.652 59.5347 94.1775 59.5347C80.9885 59.5347 71.5488 49.8048 71.5488 36.1877C71.5488 22.5706 80.8903 12.5489 93.8886 12.5489C106.887 12.5489 116.419 22.3722 116.419 35.5048C116.419 36.0885 116.419 37.3551 116.321 38.4232H79.3478ZM108.62 32.9775C108.331 29.4755 107.655 27.5318 106.119 25.2905C103.328 21.4966 98.7991 19.1619 93.8886 19.1619C88.9781 19.1619 84.5471 21.4966 81.9475 25.3897C80.6014 27.5318 80.0237 29.3762 79.446 32.9775H108.62Z" fill="#002028"/>
<path d="M129.129 58.4609H120.174L134.709 38.6802C135.801 37.1976 135.795 35.1664 134.709 33.6897L119.891 13.6114H129.134L141.307 30.5963C143.693 33.9232 143.681 38.4292 141.272 41.7444L129.134 58.4609H129.129Z" fill="#002028"/>
<path d="M159.493 58.4609L147.355 41.7444C144.946 38.4292 144.935 33.9232 147.321 30.5963L159.493 13.6114H168.736L153.918 33.6897C152.826 35.1723 152.826 37.1976 153.918 38.6802L168.453 58.4609H159.499H159.493Z" fill="#002028"/>
<path d="M224.306 58.4608V0H231.625V58.4608H224.306Z" fill="#002028"/>
<path d="M47.5105 24.2925L31.56 8.17727C29.411 6.01184 28.2036 3.07012 28.2036 0H20.1619C20.1619 5.22388 22.2185 10.2318 25.8754 13.9265L33.686 21.8177C34.2406 22.3781 33.6282 23.3061 32.9003 23.0026L5.84638 11.6852C4.61587 14.0782 3.56444 16.5763 2.70366 19.1678L29.8211 30.5145C30.5491 30.818 30.3353 31.9153 29.5438 31.9153H0.150203C0.0519935 33.2577 0 34.6119 0 35.9777C0 37.3435 0.0519935 38.6976 0.150203 40.04H29.5438C30.3295 40.04 30.5491 41.1373 29.8211 41.4408L2.70366 52.7875C3.56444 55.379 4.61587 57.8771 5.84638 60.2702L32.9003 48.9527C33.6282 48.6492 34.2406 49.5773 33.686 50.1376L25.8754 58.0289C22.2185 61.7235 20.1677 66.7314 20.1677 71.9553H28.2094C28.2094 68.8852 29.4168 65.9435 31.5658 63.7722L47.5163 47.657C50.7052 44.4351 52.2997 40.2035 52.2997 35.9777C52.2997 31.746 50.7052 27.5144 47.5163 24.2983L47.5105 24.2925Z" fill="#B192FF"/>
<path d="M205.149 13.6171V42.3163C205.149 45.8184 204.571 47.762 203.127 49.513C201.394 51.6551 197.252 52.9158 194.173 52.9158C191.093 52.9158 186.951 51.6493 185.218 49.513C183.774 47.762 183.196 45.8184 183.196 42.3163V13.6171H175.784V42.3163C175.784 48.4449 176.94 51.8477 180.215 54.8653C183.491 57.8829 189.268 59.5347 194.178 59.5347C199.089 59.5347 204.866 57.8829 208.141 54.8653C211.417 51.8477 212.572 48.4449 212.572 42.3163V13.6171H205.161H205.149Z" fill="#002028"/>
<path d="M272.706 13.6171V42.3163C272.706 45.8184 272.128 47.762 270.684 49.513C268.951 51.6551 264.809 52.9158 261.729 52.9158C258.65 52.9158 254.508 51.6493 252.775 49.513C251.331 47.762 250.753 45.8184 250.753 42.3163V13.6171H243.341V42.3163C243.341 48.4449 244.496 51.8477 247.772 54.8653C251.048 57.8829 256.825 59.5347 261.735 59.5347C266.646 59.5347 272.423 57.8829 275.698 54.8653C278.974 51.8477 280.129 48.4449 280.129 42.3163V13.6171H272.717H272.706Z" fill="#002028"/>
</svg>
